<svg xmlns="http://www.w3.org/2000/svg" viewBox="0 0 900 900"><rect x="0" y="0" width="900" height="900" rx="20" ry="20" fill="white"/><path d="M 510 195, 508 197, 508 198, 507 199, 507 202, 506 203, 506 221, 505 222, 505 223, 504 224, 504 225, 503 226, 503 227, 502 228, 502 231, 503 232, 503 237, 502 238, 502 246, 501 247, 501 250, 499 252, 499 254, 498 255, 498 269, 497 270, 497 273, 496 274, 496 275, 495 276, 495 277, 494 278, 494 293, 493 294, 493 295, 494 296, 493 297, 493 300, 492 301, 492 302, 491 303, 491 304, 490 305, 490 317, 489 318, 489 325, 488 326, 488 328, 487 329, 487 331, 486 332, 486 343, 485 344, 485 348, 484 349, 484 351, 483 352, 483 354, 482 355, 482 366, 481 367, 481 374, 480 375, 480 381, 479 382, 479 384, 478 385, 478 387, 477 388, 477 398, 476 399, 477 400, 476 401, 476 405, 475 406, 475 407, 474 408, 474 411, 473 412, 473 422, 472 423, 472 424, 471 425, 471 426, 468 429, 467 429, 466 430, 360 430, 359 431, 358 431, 357 430, 351 430, 350 431, 346 431, 345 430, 326 430, 325 431, 323 431, 322 430, 216 430, 210 424, 210 423, 205 418, 205 417, 204 416, 204 415, 203 414, 203 413, 199 409, 199 408, 198 408, 197 407, 197 406, 196 405, 196 404, 194 402, 194 401, 192 399, 192 398, 189 395, 189 394, 188 393, 188 392, 186 390, 186 389, 182 385, 182 384, 180 382, 180 381, 178 379, 178 378, 177 377, 177 376, 172 371, 172 370, 171 369, 171 368, 169 366, 169 365, 167 363, 167 362, 164 359, 164 358, 162 356, 162 355, 160 353, 160 352, 157 349, 157 348, 155 346, 155 345, 153 343, 153 342, 150 339, 150 338, 149 337, 149 336, 147 334, 147 333, 143 329, 143 328, 142 327, 142 326, 140 324, 140 323, 135 318, 135 317, 133 315, 133 314, 132 313, 132 312, 131 311, 131 310, 127 306, 127 305, 124 302, 124 301, 123 300, 123 299, 121 297, 121 296, 120 295, 120 294, 118 292, 118 291, 117 290, 116 290, 115 289, 115 288, 114 287, 114 286, 113 285, 113 284, 112 283, 112 282, 109 279, 109 278, 104 273, 103 274, 102 274, 101 275, 101 279, 102 280, 102 288, 101 289, 102 290, 101 291, 101 298, 102 299, 102 311, 101 312, 102 313, 102 427, 101 428, 101 429, 100 430, 99 430, 98 431, 0 431, 0 485, 1 485, 5 481, 7 481, 8 480, 9 480, 10 479, 12 479, 13 478, 15 478, 16 477, 17 477, 19 475, 20 475, 22 473, 23 473, 24 472, 26 472, 27 471, 29 471, 30 470, 31 470, 32 469, 33 469, 34 468, 35 468, 36 467, 38 467, 39 466, 41 466, 42 465, 44 465, 45 464, 48 464, 49 463, 51 463, 53 461, 55 461, 56 460, 60 460, 61 459, 66 459, 67 458, 69 458, 70 457, 73 457, 74 456, 76 456, 77 455, 78 455, 80 453, 82 453, 83 452, 90 452, 91 451, 93 451, 94 450, 95 450, 96 449, 99 449, 100 448, 116 448, 117 447, 119 447, 120 446, 122 446, 123 445, 126 445, 127 444, 145 444, 146 443, 147 443, 148 442, 149 442, 150 441, 173 441, 174 440, 175 440, 176 441, 178 441, 179 440, 180 441, 181 441, 182 440, 183 440, 184 441, 203 441, 204 442, 205 442, 206 443, 207 443, 208 444, 227 444, 228 445, 229 445, 230 446, 232 446, 233 447, 238 447, 239 448, 250 448, 251 449, 255 449, 256 450, 258 450, 259 451, 260 451, 261 452, 268 452, 269 453, 272 453, 273 454, 274 454, 275 455, 279 455, 280 456, 284 456, 285 457, 287 457, 288 458, 290 458, 291 459, 294 459, 295 460, 297 460, 298 461, 299 461, 300 462, 301 462, 302 463, 309 463, 310 464, 313 464, 314 465, 315 465, 317 467, 320 467, 321 468, 323 468, 324 469, 325 469, 327 471, 328 471, 330 473, 331 473, 332 474, 334 474, 335 475, 340 475, 344 479, 348 479, 349 480, 351 480, 352 481, 353 481, 354 482, 355 482, 356 483, 359 483, 360 484, 361 484, 362 485, 363 485, 364 486, 365 486, 366 487, 368 487, 369 488, 370 488, 371 489, 372 489, 373 490, 374 490, 375 491, 376 491, 379 494, 380 494, 382 496, 383 496, 384 497, 385 497, 386 498, 387 498, 388 499, 390 499, 391 500, 392 500, 393 501, 394 501, 396 503, 397 503, 398 504, 399 504, 402 507, 403 507, 404 508, 405 508, 408 511, 409 511, 413 515, 414 515, 415 516, 416 516, 420 520, 421 520, 426 525, 427 525, 433 531, 434 531, 439 536, 439 537, 451 549, 451 550, 456 555, 456 556, 458 558, 458 559, 461 562, 461 563, 467 569, 467 570, 468 571, 468 572, 471 575, 471 576, 473 578, 473 579, 474 580, 474 581, 475 582, 475 583, 476 584, 476 585, 477 586, 477 587, 478 588, 478 590, 480 592, 480 593, 481 594, 481 595, 482 596, 482 597, 483 598, 483 601, 484 602, 484 603, 487 606, 487 608, 488 609, 488 615, 489 616, 489 617, 490 618, 490 619, 491 620, 491 621, 492 622, 492 625, 493 626, 493 632, 494 633, 494 636, 495 637, 495 641, 496 642, 496 647, 497 648, 497 663, 498 664, 498 665, 497 666, 497 675, 496 676, 496 680, 495 681, 495 684, 494 685, 494 691, 493 692, 493 701, 492 702, 492 705, 490 707, 490 708, 489 709, 489 711, 488 712, 488 719, 487 720, 487 722, 486 723, 486 725, 484 727, 484 728, 483 729, 483 730, 482 731, 482 733, 481 734, 481 736, 479 738, 479 739, 478 740, 478 741, 477 742, 477 744, 476 745, 476 746, 475 747, 475 748, 473 750, 473 751, 472 752, 472 753, 471 754, 471 756, 469 758, 469 759, 465 763, 465 764, 463 766, 463 767, 461 769, 461 770, 460 771, 460 772, 458 774, 458 775, 456 777, 456 778, 453 781, 453 782, 451 784, 451 785, 449 787, 449 788, 445 792, 445 793, 438 800, 438 801, 435 804, 435 805, 434 806, 433 806, 427 812, 426 812, 422 816, 421 816, 417 820, 416 820, 410 826, 409 826, 408 827, 407 827, 402 832, 401 832, 399 834, 398 834, 395 837, 394 837, 392 839, 391 839, 389 841, 388 841, 385 844, 384 844, 383 845, 382 845, 381 846, 380 846, 378 848, 377 848, 376 849, 375 849, 374 850, 373 850, 372 851, 371 851, 370 852, 369 852, 368 853, 367 853, 365 855, 364 855, 362 857, 361 857, 360 858, 359 858, 358 859, 357 859, 356 860, 355 860, 354 861, 353 861, 352 862, 351 862, 350 863, 349 863, 348 864, 346 864, 345 865, 344 865, 343 866, 342 866, 340 868, 339 868, 338 869, 336 869, 335 870, 333 870, 332 871, 331 871, 330 872, 328 872, 327 873, 324 873, 323 874, 320 874, 319 875, 317 875, 316 876, 315 876, 314 877, 312 877, 311 878, 309 878, 308 879, 306 879, 305 880, 302 880, 301 881, 299 881, 298 882, 296 882, 295 883, 294 883, 293 884, 290 884, 289 885, 285 885, 284 886, 281 886, 280 887, 278 887, 277 888, 274 888, 273 889, 268 889, 267 890, 264 890, 263 891, 260 891, 259 892, 255 892, 254 893, 245 893, 244 894, 238 894, 237 895, 232 895, 231 896, 225 896, 224 897, 192 897, 191 898, 190 898, 189 897, 171 897, 170 898, 166 898, 165 897, 150 897, 149 896, 145 896, 144 895, 142 895, 141 894, 129 894, 128 893, 117 893, 116 892, 112 892, 111 891, 109 891, 108 890, 102 890, 101 889, 96 889, 95 888, 91 888, 90 887, 87 887, 86 886, 82 886, 81 885, 74 885, 73 884, 70 884, 69 883, 68 883, 64 879, 64 878, 63 877, 63 873, 62 872, 62 869, 61 868, 61 861, 60 860, 60 856, 59 855, 59 853, 58 852, 58 850, 57 849, 57 846, 56 845, 56 837, 55 836, 55 833, 54 832, 54 831, 53 830, 53 828, 52 827, 52 824, 51 823, 51 815, 50 814, 50 811, 49 810, 49 808, 48 807, 48 806, 47 805, 47 804, 46 803, 46 795, 45 794, 45 786, 44 785, 44 782, 43 781, 43 779, 42 778, 42 776, 41 775, 41 772, 40 771, 40 761, 39 760, 39 758, 38 757, 38 755, 37 754, 37 748, 36 747, 36 744, 35 743, 35 736, 34 735, 34 734, 33 733, 33 732, 35 730, 39 730, 40 731, 41 731, 46 736, 47 736, 48 737, 48 738, 57 747, 58 747, 59 748, 60 748, 62 750, 63 750, 64 751, 65 751, 66 752, 67 752, 68 753, 70 753, 72 755, 73 755, 78 760, 79 760, 81 762, 82 762, 85 765, 86 765, 88 767, 89 767, 90 768, 91 768, 93 770, 95 770, 96 771, 98 771, 99 772, 101 772, 102 773, 103 773, 104 774, 105 774, 106 775, 108 775, 109 776, 111 776, 112 777, 113 777, 114 778, 115 778, 116 779, 118 779, 119 780, 122 780, 123 781, 125 781, 126 782, 129 782, 130 783, 139 783, 140 784, 141 784, 142 785, 144 785, 145 786, 147 786, 148 787, 179 787, 180 788, 181 787, 182 788, 187 788, 188 787, 214 787, 215 786, 217 786, 218 785, 219 785, 220 784, 221 784, 222 783, 225 783, 226 782, 228 782, 230 780, 233 780, 234 779, 241 779, 242 778, 243 778, 244 777, 245 777, 246 776, 247 776, 248 775, 249 775, 250 774, 251 774, 252 773, 254 773, 255 772, 256 772, 258 770, 259 770, 261 768, 262 768, 264 766, 265 766, 266 765, 267 765, 268 764, 270 764, 271 763, 273 763, 274 762, 275 762, 276 761, 277 761, 279 759, 280 759, 283 756, 284 756, 286 754, 287 754, 288 753, 289 753, 294 748, 295 748, 296 747, 297 747, 303 741, 304 741, 310 735, 310 734, 322 722, 322 721, 323 720, 323 718, 325 716, 325 715, 326 714, 326 713, 328 711, 328 710, 329 709, 329 708, 330 707, 330 706, 331 705, 331 702, 332 701, 332 699, 333 698, 333 697, 334 696, 334 694, 335 693, 335 685, 336 684, 336 678, 337 677, 337 668, 336 667, 336 660, 335 659, 335 649, 334 648, 334 647, 333 646, 333 645, 332 644, 332 643, 331 642, 331 639, 330 638, 330 635, 329 634, 329 633, 328 632, 328 631, 327 630, 327 629, 325 627, 325 626, 323 624, 323 623, 322 622, 322 621, 318 617, 318 616, 310 608, 310 607, 303 600, 302 600, 296 594, 295 594, 291 590, 291 589, 289 587, 288 587, 286 585, 285 585, 283 583, 281 583, 279 581, 278 581, 277 580, 276 580, 274 578, 273 578, 271 576, 270 576, 269 575, 268 575, 266 573, 265 573, 264 572, 263 572, 262 571, 261 571, 260 570, 259 570, 258 569, 256 569, 255 568, 254 568, 253 567, 252 567, 251 566, 249 566, 248 565, 247 565, 246 564, 244 564, 243 563, 241 563, 240 562, 238 562, 237 561, 235 561, 234 560, 231 560, 230 559, 227 559, 226 558, 219 558, 218 557, 212 557, 211 556, 206 556, 205 555, 199 555, 198 554, 153 554, 152 555, 147 555, 146 556, 144 556, 143 557, 141 557, 140 558, 130 558, 129 559, 125 559, 124 560, 120 560, 119 561, 116 561, 115 562, 113 562, 112 563, 110 563, 109 564, 107 564, 106 565, 105 565, 104 566, 103 566, 102 567, 100 567, 99 568, 98 568, 97 569, 96 569, 95 570, 94 570, 92 572, 91 572, 90 573, 88 573, 87 574, 86 574, 85 575, 84 575, 83 576, 82 576, 80 578, 79 578, 78 579, 77 579, 75 581, 74 581, 72 583, 71 583, 66 588, 65 588, 61 592, 60 592, 55 597, 54 597, 54 598, 44 608, 44 609, 40 613, 40 614, 33 621, 33 622, 31 624, 31 625, 30 626, 30 627, 28 629, 28 630, 27 631, 27 633, 26 634, 26 635, 25 636, 24 636, 23 637, 21 637, 20 636, 18 636, 16 634, 16 633, 15 632, 15 624, 14 623, 14 621, 13 620, 13 618, 12 617, 12 616, 11 615, 11 613, 10 612, 10 606, 9 605, 9 599, 8 598, 8 595, 7 594, 7 592, 6 591, 6 589, 5 588, 5 586, 4 585, 4 578, 3 577, 3 574, 2 573, 2 570, 1 569, 1 568, 0 567, 0 565, 0 899, 899 899, 899 802, 899 803, 898 804, 898 805, 897 806, 897 807, 895 809, 895 810, 891 814, 891 815, 887 819, 887 820, 880 827, 880 828, 873 835, 872 835, 867 840, 866 840, 865 841, 864 841, 859 846, 858 846, 856 848, 856 849, 855 850, 854 850, 851 853, 850 853, 849 854, 848 854, 847 855, 846 855, 845 856, 844 856, 842 858, 841 858, 840 859, 839 859, 837 861, 836 861, 834 863, 833 863, 832 864, 831 864, 830 865, 829 865, 828 866, 826 866, 825 867, 824 867, 823 868, 822 868, 821 869, 820 869, 819 870, 817 870, 816 871, 814 871, 812 873, 811 873, 810 874, 808 874, 807 875, 806 875, 805 876, 804 876, 803 877, 802 877, 801 878, 799 878, 798 879, 797 879, 796 880, 793 880, 792 881, 790 881, 789 882, 787 882, 786 883, 785 883, 784 884, 781 884, 780 885, 776 885, 775 886, 773 886, 772 887, 769 887, 768 888, 766 888, 765 889, 761 889, 760 890, 757 890, 756 891, 753 891, 752 892, 748 892, 747 893, 716 893, 715 894, 714 893, 712 893, 711 894, 696 894, 695 893, 650 893, 649 892, 642 892, 641 891, 638 891, 637 890, 632 890, 631 889, 624 889, 623 888, 617 888, 616 887, 611 887, 610 886, 605 886, 604 885, 601 885, 600 884, 597 884, 596 883, 594 883, 593 882, 587 882, 586 881, 583 881, 582 880, 580 880, 579 879, 576 879, 575 878, 571 878, 570 877, 568 877, 567 876, 565 876, 564 875, 562 875, 561 874, 556 874, 555 873, 553 873, 552 872, 550 872, 549 871, 548 871, 547 870, 545 870, 544 869, 541 869, 540 868, 538 868, 537 867, 536 867, 535 866, 533 866, 532 865, 531 865, 530 864, 529 864, 528 863, 526 863, 525 862, 523 862, 522 861, 521 861, 520 860, 519 860, 518 859, 517 859, 516 858, 514 858, 513 857, 512 857, 510 855, 508 855, 507 854, 506 854, 505 853, 504 853, 503 852, 502 852, 501 851, 500 851, 499 850, 498 850, 496 848, 495 848, 491 844, 491 840, 495 836, 495 835, 498 832, 498 831, 500 829, 500 828, 502 826, 502 825, 504 823, 504 822, 506 820, 506 819, 508 817, 508 816, 511 813, 512 813, 514 811, 514 810, 517 807, 517 806, 520 803, 520 802, 521 801, 521 800, 524 797, 524 796, 528 792, 528 791, 530 789, 530 788, 537 781, 537 780, 539 778, 539 777, 541 775, 541 774, 544 771, 544 770, 547 767, 547 766, 556 757, 562 757, 563 758, 564 758, 567 761, 568 761, 570 763, 571 763, 574 766, 575 766, 576 767, 579 767, 580 768, 581 768, 582 769, 583 769, 584 770, 585 770, 588 773, 589 773, 590 774, 592 774, 593 775, 595 775, 596 776, 597 776, 598 777, 600 777, 601 778, 603 778, 604 779, 606 779, 608 781, 610 781, 611 782, 613 782, 614 783, 616 783, 617 784, 618 784, 619 785, 620 785, 621 786, 623 786, 624 787, 628 787, 629 788, 630 788, 631 789, 632 789, 633 790, 635 790, 636 791, 644 791, 645 792, 646 792, 647 793, 649 793, 650 794, 653 794, 654 795, 660 795, 661 796, 662 796, 663 797, 667 797, 668 798, 693 798, 694 799, 722 799, 723 798, 732 798, 733 797, 735 797, 736 796, 737 796, 739 794, 740 794, 743 791, 744 791, 745 790, 745 789, 750 784, 750 783, 751 782, 751 781, 752 780, 752 779, 754 777, 754 776, 755 775, 755 751, 754 750, 754 745, 753 744, 753 743, 750 740, 749 740, 745 736, 744 736, 743 735, 742 735, 740 733, 739 733, 738 732, 737 732, 736 731, 734 731, 733 730, 732 730, 731 729, 729 729, 728 728, 727 728, 726 727, 724 727, 723 726, 720 726, 719 725, 718 725, 717 724, 716 724, 715 723, 713 723, 712 722, 711 722, 710 721, 708 721, 707 720, 704 720, 703 719, 699 719, 698 718, 696 718, 695 717, 693 717, 692 716, 690 716, 689 715, 686 715, 685 714, 683 714, 682 713, 680 713, 679 712, 674 712, 673 711, 670 711, 669 710, 668 710, 667 709, 664 709, 663 708, 658 708, 657 707, 654 707, 653 706, 650 706, 649 705, 644 705, 643 704, 637 704, 636 703, 632 703, 631 702, 630 702, 629 701, 624 701, 623 700, 619 700, 618 699, 616 699, 615 698, 612 698, 611 697, 606 697, 605 696, 603 696, 602 695, 600 695, 599 694, 596 694, 595 693, 592 693, 591 692, 589 692, 588 691, 586 691, 585 690, 584 690, 582 688, 580 688, 578 686, 576 686, 575 685, 574 685, 573 684, 572 684, 570 682, 568 682, 565 679, 564 679, 563 678, 562 678, 560 676, 559 676, 556 673, 555 673, 553 671, 552 671, 547 666, 546 666, 537 657, 537 656, 534 653, 533 653, 529 649, 529 648, 528 647, 528 646, 525 643, 525 642, 523 640, 523 639, 522 638, 522 637, 518 633, 518 632, 516 630, 516 629, 515 628, 515 626, 514 625, 514 624, 513 623, 513 622, 512 621, 512 618, 511 617, 511 610, 510 609, 510 605, 509 604, 509 602, 508 601, 508 599, 507 598, 507 584, 508 583, 508 582, 509 581, 509 580, 510 579, 510 572, 511 571, 511 564, 512 563, 512 561, 513 560, 513 559, 514 558, 514 557, 515 556, 515 554, 516 553, 516 550, 517 549, 517 546, 518 545, 518 544, 520 542, 520 541, 521 540, 521 539, 522 538, 522 536, 524 534, 524 533, 525 532, 525 531, 527 529, 527 528, 528 527, 528 525, 530 523, 530 522, 532 520, 532 519, 533 518, 533 517, 536 514, 536 513, 537 512, 537 511, 558 490, 559 490, 564 485, 565 485, 569 481, 570 481, 572 479, 573 479, 576 476, 577 476, 578 475, 579 475, 581 473, 582 473, 583 472, 584 472, 588 468, 589 468, 590 467, 592 467, 593 466, 595 466, 596 465, 597 465, 600 462, 601 462, 602 461, 603 461, 604 460, 607 460, 608 459, 609 459, 610 458, 611 458, 612 457, 614 457, 615 456, 616 456, 617 455, 619 455, 620 454, 621 454, 622 453, 623 453, 624 452, 626 452, 627 451, 631 451, 632 450, 633 450, 634 449, 635 449, 636 448, 645 448, 646 447, 647 447, 648 446, 649 446, 650 445, 658 445, 659 444, 662 444, 663 443, 664 443, 665 442, 666 442, 667 441, 675 441, 676 440, 741 440, 742 441, 750 441, 751 442, 753 442, 754 443, 755 443, 756 444, 768 444, 769 445, 772 445, 773 446, 775 446, 776 447, 779 447, 780 448, 791 448, 792 449, 794 449, 795 450, 796 450, 797 451, 799 451, 800 452, 806 452, 807 453, 809 453, 810 454, 813 454, 814 455, 818 455, 819 456, 823 456, 824 457, 826 457, 828 459, 830 459, 831 460, 834 460, 835 461, 837 461, 838 462, 840 462, 841 463, 845 463, 846 464, 850 464, 851 465, 852 465, 854 467, 855 467, 856 468, 860 468, 861 469, 863 469, 864 470, 865 470, 866 471, 868 471, 869 472, 871 472, 872 473, 873 473, 875 475, 877 475, 878 476, 881 476, 882 477, 883 477, 884 478, 884 480, 885 481, 885 484, 884 485, 884 486, 882 488, 882 489, 880 491, 880 492, 879 493, 879 494, 877 496, 877 497, 875 499, 875 500, 872 503, 872 504, 871 505, 871 506, 868 509, 868 510, 866 512, 866 513, 864 515, 864 516, 863 517, 863 518, 861 520, 861 521, 858 524, 858 525, 855 528, 855 529, 854 530, 854 531, 852 533, 852 534, 850 536, 850 537, 846 541, 846 542, 842 546, 842 547, 840 549, 840 550, 839 551, 839 552, 836 555, 836 556, 835 557, 835 558, 831 562, 830 562, 829 563, 827 563, 826 564, 824 564, 823 563, 820 563, 819 562, 817 562, 816 561, 815 561, 814 560, 811 560, 810 559, 809 559, 808 558, 806 558, 805 557, 804 557, 803 556, 801 556, 800 555, 799 555, 798 554, 796 554, 795 553, 792 553, 791 552, 790 552, 789 551, 788 551, 787 550, 782 550, 781 549, 779 549, 778 548, 776 548, 775 547, 773 547, 772 546, 768 546, 767 545, 765 545, 764 544, 759 544, 758 543, 755 543, 754 542, 748 542, 747 541, 744 541, 743 540, 736 540, 735 539, 718 539, 717 540, 713 540, 712 541, 710 541, 709 542, 704 542, 703 543, 699 543, 697 545, 695 545, 694 546, 693 546, 692 547, 690 547, 688 549, 687 549, 686 550, 685 550, 678 557, 678 558, 675 561, 675 562, 673 564, 673 565, 672 566, 672 567, 671 568, 671 572, 670 573, 670 579, 671 580, 671 581, 672 582, 672 584, 674 586, 674 587, 675 587, 676 588, 676 589, 681 594, 682 594, 683 595, 684 595, 685 596, 686 596, 687 597, 689 597, 691 599, 692 599, 695 602, 697 602, 698 603, 700 603, 701 604, 703 604, 704 605, 705 605, 706 606, 707 606, 708 607, 710 607, 711 608, 714 608, 715 609, 719 609, 720 610, 724 610, 725 611, 727 611, 728 612, 729 612, 730 613, 733 613, 734 614, 740 614, 741 615, 744 615, 745 616, 747 616, 748 617, 754 617, 755 618, 767 618, 768 619, 773 619, 774 620, 776 620, 777 621, 782 621, 783 622, 786 622, 787 623, 789 623, 790 624, 793 624, 794 625, 798 625, 799 626, 803 626, 804 627, 806 627, 807 628, 808 628, 809 629, 810 629, 811 630, 813 630, 814 631, 817 631, 818 632, 819 632, 820 633, 821 633, 822 634, 824 634, 825 635, 827 635, 828 636, 829 636, 830 637, 831 637, 832 638, 833 638, 834 639, 836 639, 837 640, 838 640, 839 641, 840 641, 841 642, 842 642, 843 643, 844 643, 845 644, 846 644, 848 646, 849 646, 851 648, 852 648, 853 649, 854 649, 855 650, 856 650, 857 651, 858 651, 859 652, 860 652, 863 655, 864 655, 865 656, 866 656, 869 659, 870 659, 872 661, 873 661, 882 670, 882 671, 883 671, 885 673, 885 674, 886 675, 887 675, 890 678, 890 679, 893 682, 893 683, 896 686, 896 687, 897 688, 897 689, 899 691, 899 424, 896 424, 895 423, 880 423, 879 424, 872 424, 871 423, 822 423, 821 424, 804 424, 803 423, 801 423, 798 420, 798 419, 797 418, 797 416, 796 415, 796 412, 795 411, 795 406, 794 405, 794 389, 793 388, 793 385, 792 384, 792 382, 791 381, 791 374, 790 373, 790 357, 789 356, 789 354, 788 353, 788 348, 787 347, 787 338, 786 337, 786 327, 785 326, 785 316, 784 315, 784 314, 783 313, 783 308, 782 307, 782 298, 781 297, 781 286, 780 285, 780 281, 779 280, 779 278, 778 277, 778 264, 777 263, 777 251, 776 250, 776 248, 775 247, 775 245, 774 244, 774 237, 773 236, 773 234, 774 233, 774 232, 773 231, 773 218, 772 217, 772 214, 771 213, 771 210, 770 209, 770 203, 769 202, 769 201, 768 200, 767 200, 766 201, 765 201, 765 202, 764 203, 764 204, 763 205, 763 206, 761 208, 761 210, 759 212, 759 214, 758 215, 758 217, 757 218, 757 220, 756 221, 756 222, 754 224, 754 227, 753 228, 753 229, 752 230, 752 231, 750 233, 750 235, 749 236, 749 238, 748 239, 748 241, 746 243, 746 245, 744 247, 744 248, 743 249, 743 250, 742 251, 742 252, 741 253, 741 256, 740 257, 740 258, 739 259, 739 260, 738 261, 738 264, 737 265, 737 266, 735 268, 735 269, 734 270, 734 272, 733 273, 733 274, 732 275, 732 276, 730 278, 730 280, 729 281, 729 284, 727 286, 727 287, 726 288, 726 289, 725 290, 725 292, 724 293, 724 294, 722 296, 722 297, 721 298, 721 300, 720 301, 720 304, 719 305, 719 306, 718 307, 718 308, 717 309, 717 310, 716 311, 716 312, 715 313, 715 314, 714 315, 714 316, 713 317, 713 318, 712 319, 712 321, 711 322, 711 323, 710 324, 710 325, 709 326, 709 327, 707 329, 707 330, 706 331, 706 333, 705 334, 705 335, 704 336, 704 338, 703 339, 703 340, 702 341, 702 343, 701 344, 701 345, 700 346, 700 348, 699 349, 699 351, 698 352, 698 353, 696 355, 696 357, 694 359, 694 361, 692 363, 692 365, 691 366, 691 367, 690 368, 690 369, 689 370, 689 371, 688 372, 688 374, 687 375, 687 377, 686 378, 686 379, 685 380, 685 381, 684 382, 684 383, 683 384, 683 385, 682 386, 682 387, 681 388, 681 389, 680 390, 680 391, 679 392, 679 393, 678 394, 678 395, 677 396, 677 397, 676 398, 676 401, 675 402, 675 404, 674 405, 674 406, 673 407, 673 408, 672 409, 672 410, 671 411, 671 412, 670 413, 670 414, 669 415, 669 416, 668 417, 668 418, 667 419, 667 420, 663 424, 662 424, 661 425, 660 425, 659 426, 613 426, 609 422, 609 420, 608 419, 608 418, 605 415, 605 412, 604 411, 604 410, 601 407, 601 404, 600 403, 600 402, 599 401, 599 400, 598 399, 598 397, 597 396, 597 394, 596 393, 596 391, 595 390, 595 389, 594 388, 594 387, 593 386, 593 385, 592 384, 592 383, 591 382, 591 381, 589 379, 589 377, 588 376, 588 374, 587 373, 587 371, 586 370, 586 369, 585 368, 585 366, 583 364, 583 363, 582 362, 582 361, 580 359, 580 355, 579 354, 579 351, 578 350, 578 349, 576 347, 576 345, 575 344, 575 343, 574 342, 574 341, 572 339, 572 337, 571 336, 571 333, 570 332, 570 331, 569 330, 569 329, 568 328, 568 326, 567 325, 567 323, 566 322, 566 320, 565 319, 565 318, 564 317, 564 316, 563 315, 563 314, 562 313, 562 312, 561 311, 561 310, 560 309, 560 308, 559 307, 559 304, 558 303, 558 301, 556 299, 556 298, 555 297, 555 296, 554 295, 554 294, 553 293, 553 292, 552 291, 552 290, 551 289, 551 287, 550 286, 550 283, 549 282, 549 281, 548 280, 548 279, 547 278, 547 277, 546 276, 546 275, 545 274, 545 273, 544 272, 544 271, 543 270, 543 269, 542 268, 542 267, 541 266, 541 262, 540 261, 540 260, 538 258, 538 257, 537 256, 537 254, 536 253, 536 252, 535 251, 535 250, 534 249, 534 248, 533 247, 533 246, 532 245, 532 244, 531 243, 531 242, 530 241, 530 238, 529 237, 529 236, 528 235, 528 234, 527 233, 527 232, 526 231, 526 229, 525 228, 525 224, 523 222, 523 221, 522 220, 522 219, 521 218, 521 216, 520 215, 520 214, 518 212, 518 210, 517 209, 517 205, 515 203, 515 202, 513 200, 513 198, 512 197, 512 196, 511 195 Z" fill="black" stroke="black"/><path d="M 108 88, 107 89, 105 89, 102 92, 102 196, 104 198, 107 198, 108 199, 109 199, 110 198, 128 198, 129 197, 131 197, 132 196, 133 196, 134 195, 141 195, 142 194, 146 194, 147 193, 148 193, 150 191, 156 191, 157 190, 158 190, 160 188, 161 188, 162 187, 164 187, 165 186, 166 186, 168 184, 169 184, 172 181, 173 181, 174 180, 175 180, 176 179, 177 179, 179 177, 179 175, 186 168, 186 167, 187 166, 187 164, 188 163, 188 162, 189 161, 189 160, 191 158, 191 154, 192 153, 192 149, 193 148, 193 138, 192 137, 192 128, 191 127, 191 122, 190 121, 190 120, 189 119, 189 118, 188 117, 188 116, 186 114, 186 113, 184 111, 184 110, 183 110, 179 106, 178 106, 176 104, 175 104, 173 102, 172 102, 170 100, 169 100, 168 99, 167 99, 166 98, 164 98, 163 97, 162 97, 161 96, 159 96, 158 95, 157 95, 156 94, 154 94, 153 93, 151 93, 150 92, 138 92, 137 91, 127 91, 126 90, 122 90, 121 89, 112 89, 111 88 Z" fill="black" stroke="black"/><path d="M 0 0, 0 8, 186 8, 187 9, 199 9, 200 10, 213 10, 214 11, 216 11, 217 12, 218 12, 219 13, 222 13, 223 14, 228 14, 229 15, 231 15, 232 16, 233 16, 234 17, 237 17, 238 18, 241 18, 242 19, 243 19, 244 20, 245 20, 246 21, 248 21, 249 22, 250 22, 251 23, 252 23, 253 24, 254 24, 255 25, 256 25, 257 26, 259 26, 260 27, 261 27, 263 29, 264 29, 266 31, 267 31, 268 32, 269 32, 271 34, 272 34, 275 37, 276 37, 287 48, 288 48, 297 57, 297 58, 299 60, 299 61, 300 62, 300 63, 301 63, 302 64, 302 65, 303 66, 303 67, 304 68, 304 69, 305 70, 305 71, 306 72, 306 73, 308 75, 308 77, 309 78, 309 79, 310 80, 310 82, 311 83, 311 85, 312 86, 312 90, 313 91, 313 93, 314 94, 314 96, 315 97, 315 101, 316 102, 316 116, 317 117, 317 119, 316 120, 316 121, 317 122, 317 127, 318 128, 318 131, 319 132, 319 134, 318 135, 318 138, 317 139, 317 141, 316 142, 316 147, 317 148, 317 151, 316 152, 316 164, 315 165, 315 166, 314 167, 314 170, 313 171, 313 172, 312 173, 312 179, 311 180, 311 181, 310 182, 310 183, 309 184, 309 186, 308 187, 308 189, 307 190, 307 191, 306 192, 306 194, 305 195, 305 196, 304 197, 304 199, 302 201, 302 202, 301 203, 301 204, 300 205, 300 206, 298 208, 298 209, 296 211, 296 212, 290 218, 290 219, 285 224, 285 225, 279 231, 278 231, 275 234, 274 234, 273 235, 272 235, 269 238, 268 238, 266 240, 265 240, 264 241, 263 241, 262 242, 260 242, 259 243, 258 243, 256 245, 255 245, 254 246, 253 246, 252 247, 251 247, 250 248, 248 248, 247 249, 245 249, 244 250, 242 250, 241 251, 239 251, 238 252, 235 252, 234 253, 229 253, 228 254, 226 254, 225 255, 224 255, 224 259, 226 261, 226 262, 228 264, 228 265, 230 267, 230 268, 236 274, 236 275, 238 277, 238 278, 240 280, 240 281, 245 286, 245 287, 246 288, 246 289, 252 295, 252 296, 253 296, 254 297, 254 298, 256 300, 256 301, 258 303, 258 304, 263 309, 263 310, 269 316, 269 317, 271 319, 271 321, 277 327, 277 328, 278 329, 278 330, 280 332, 280 333, 286 339, 286 340, 290 344, 290 345, 292 347, 292 349, 294 351, 295 351, 296 352, 296 353, 297 353, 298 354, 298 355, 299 356, 299 357, 300 358, 300 359, 303 362, 303 363, 304 363, 307 366, 307 367, 310 370, 310 371, 314 375, 314 376, 316 378, 316 379, 319 382, 319 383, 321 385, 321 386, 330 395, 330 396, 332 398, 332 399, 333 400, 333 401, 337 405, 337 406, 340 409, 340 410, 344 414, 344 415, 349 420, 351 420, 354 417, 354 415, 355 414, 355 412, 356 411, 356 400, 357 399, 357 395, 358 394, 358 392, 359 391, 359 388, 360 387, 360 379, 361 378, 361 373, 362 372, 362 370, 363 369, 363 367, 364 366, 364 362, 365 361, 365 352, 366 351, 366 348, 367 347, 367 345, 368 344, 368 338, 369 337, 369 330, 370 329, 370 326, 371 325, 371 323, 372 322, 372 317, 373 316, 373 310, 374 309, 374 303, 375 302, 375 301, 376 300, 376 297, 377 296, 377 286, 378 285, 378 283, 379 282, 379 280, 380 279, 380 278, 381 277, 381 267, 382 266, 382 260, 383 259, 383 258, 384 257, 384 255, 385 254, 385 245, 386 244, 386 239, 387 238, 387 236, 388 235, 388 233, 389 232, 389 223, 390 222, 390 218, 391 217, 391 213, 392 212, 392 210, 393 209, 393 205, 394 204, 394 195, 395 194, 395 192, 396 191, 396 190, 397 189, 397 180, 398 179, 398 171, 399 170, 399 169, 400 168, 400 166, 401 165, 401 154, 402 153, 402 149, 403 148, 403 147, 404 146, 404 145, 405 144, 405 138, 406 137, 405 136, 406 135, 406 126, 407 125, 407 124, 408 123, 408 121, 409 120, 409 118, 410 117, 410 107, 411 106, 411 102, 412 101, 412 99, 413 98, 413 96, 414 95, 414 84, 415 83, 415 80, 416 79, 416 77, 417 76, 417 72, 418 71, 418 66, 419 65, 419 59, 420 58, 420 57, 421 56, 421 54, 422 53, 422 43, 423 42, 423 38, 424 37, 424 35, 425 34, 425 32, 426 31, 426 26, 427 25, 427 16, 428 15, 428 13, 429 12, 429 10, 430 9, 430 8, 433 5, 434 5, 435 4, 544 4, 545 5, 547 5, 548 6, 549 6, 551 8, 551 9, 552 10, 552 12, 553 13, 553 14, 554 15, 554 16, 555 17, 555 18, 556 19, 556 20, 557 21, 557 22, 558 23, 558 25, 559 26, 559 27, 560 28, 560 30, 561 31, 561 33, 562 34, 562 35, 563 36, 563 38, 564 39, 564 41, 565 42, 565 44, 566 45, 566 46, 567 47, 567 48, 568 49, 568 51, 569 52, 569 53, 570 54, 570 55, 571 56, 571 58, 572 59, 572 61, 573 62, 573 63, 574 64, 574 66, 575 67, 575 68, 576 69, 576 71, 577 72, 577 74, 578 75, 578 76, 580 78, 580 79, 581 80, 581 82, 582 83, 582 85, 584 87, 584 89, 585 90, 585 92, 586 93, 586 95, 587 96, 587 97, 588 98, 588 100, 589 101, 589 103, 590 104, 590 105, 591 106, 591 107, 592 108, 592 109, 593 110, 593 111, 594 112, 594 113, 595 114, 595 115, 596 116, 596 119, 597 120, 597 122, 598 123, 598 125, 599 126, 599 127, 600 128, 600 129, 602 131, 602 133, 603 134, 603 135, 604 136, 604 137, 605 138, 605 141, 606 142, 606 143, 607 144, 607 145, 608 146, 608 148, 609 149, 609 151, 610 152, 610 154, 611 155, 611 156, 612 157, 612 158, 613 159, 613 160, 614 161, 614 163, 616 165, 616 167, 617 168, 617 171, 618 172, 618 174, 620 176, 620 177, 621 178, 621 180, 622 181, 622 185, 624 187, 624 188, 625 189, 625 191, 626 192, 626 193, 627 194, 627 195, 628 196, 628 197, 629 198, 629 199, 630 200, 630 204, 632 206, 632 208, 633 209, 633 210, 634 211, 634 212, 635 213, 635 214, 636 215, 636 216, 637 217, 637 218, 639 220, 640 219, 641 219, 641 218, 642 217, 642 216, 644 214, 644 213, 645 212, 645 211, 646 210, 646 207, 647 206, 647 204, 648 203, 648 202, 649 201, 649 200, 650 199, 650 196, 651 195, 651 193, 652 192, 652 191, 654 189, 654 187, 655 186, 655 185, 657 183, 657 182, 658 181, 658 178, 659 177, 659 174, 661 172, 661 171, 662 170, 662 168, 664 166, 664 165, 665 164, 665 163, 666 162, 666 160, 667 159, 667 156, 668 155, 668 154, 669 153, 669 152, 670 151, 670 150, 671 149, 671 147, 673 145, 673 144, 674 143, 674 141, 675 140, 675 138, 676 137, 676 136, 677 135, 677 133, 678 132, 678 131, 679 130, 679 129, 680 128, 680 127, 681 126, 681 125, 682 124, 682 123, 683 122, 683 120, 684 119, 684 117, 685 116, 685 114, 686 113, 686 112, 687 111, 687 110, 688 109, 688 108, 689 107, 689 106, 690 105, 690 103, 691 102, 691 100, 692 99, 692 98, 693 97, 693 96, 694 95, 694 93, 695 92, 695 89, 696 88, 696 87, 697 86, 697 84, 698 83, 698 82, 699 81, 699 80, 700 79, 700 78, 701 77, 701 76, 702 75, 702 74, 703 73, 703 72, 704 71, 704 70, 705 69, 705 68, 706 67, 706 66, 707 65, 707 62, 708 61, 708 59, 709 58, 709 57, 711 55, 711 52, 712 51, 712 50, 713 49, 713 48, 714 47, 714 45, 715 44, 715 43, 716 42, 716 41, 717 40, 717 38, 718 37, 718 36, 719 35, 719 34, 720 33, 720 32, 721 31, 721 29, 722 28, 722 27, 723 26, 723 24, 724 23, 724 22, 725 21, 725 20, 726 19, 726 18, 727 17, 727 16, 728 15, 728 13, 729 12, 729 10, 730 9, 730 8, 733 5, 734 5, 735 4, 850 4, 851 5, 853 5, 855 7, 855 8, 856 9, 856 13, 857 14, 857 25, 858 26, 858 28, 859 29, 859 33, 860 34, 860 39, 861 40, 861 46, 862 47, 862 56, 863 57, 863 59, 864 60, 864 65, 865 66, 865 69, 866 70, 866 81, 867 82, 867 85, 868 86, 868 90, 869 91, 869 99, 870 100, 870 104, 871 105, 871 108, 872 109, 872 114, 873 115, 873 123, 874 124, 874 131, 875 132, 875 134, 876 135, 876 138, 877 139, 877 149, 878 150, 878 156, 879 157, 879 161, 880 162, 880 165, 881 166, 881 171, 882 172, 882 184, 883 185, 883 187, 884 188, 884 190, 885 191, 885 195, 886 196, 886 209, 887 210, 887 213, 888 214, 888 215, 889 216, 889 219, 890 220, 890 232, 891 233, 891 240, 892 241, 892 242, 893 243, 893 245, 894 246, 894 253, 895 254, 895 266, 896 267, 896 268, 897 269, 897 275, 898 276, 898 286, 899 287, 899 291, 899 0 Z" fill="black" stroke="black"/></svg>